<svg style="position: absolute; width: 0; height: 0; overflow: hidden;" version="1.1" xmlns="http://www.w3.org/2000/svg" xmlns:xlink="http://www.w3.org/1999/xlink">
  <defs>
    <symbol id="icon-codepen" viewBox="0 0 32 32">
      <title>codepen</title>
      <path class="path1" d="M15.969 29.316c-7.359 0-13.347-5.987-13.347-13.347s5.987-13.347 13.347-13.347c7.359 0 13.346 5.987 13.346 13.347s-5.987 13.347-13.346 13.347zM15.969 0c-8.82 0-15.969 7.15-15.969 15.969s7.149 15.969 15.969 15.969c8.82 0 15.969-7.149 15.969-15.969s-7.149-15.969-15.969-15.969z"></path>
      <path class="path2" d="M24.146 17.389l-2.123-1.42 2.123-1.42v2.84zM16.818 23.409v-3.958l3.679-2.46 2.97 1.986-6.649 4.432zM15.969 17.977l-3.001-2.008 3.001-2.008 3.001 2.008-3.001 2.008zM15.121 23.409l-6.649-4.432 2.97-1.986 3.679 2.46v3.958zM7.792 14.549l2.123 1.42-2.123 1.42v-2.84zM15.121 8.53v3.958l-3.679 2.461-2.97-1.987 6.649-4.432zM16.818 8.53l6.649 4.432-2.97 1.987-3.679-2.461v-3.958zM25.836 12.85c-0.002-0.012-0.005-0.024-0.007-0.037-0.004-0.024-0.009-0.048-0.015-0.071-0.004-0.014-0.009-0.027-0.013-0.041-0.007-0.021-0.014-0.042-0.022-0.062-0.006-0.014-0.012-0.028-0.019-0.042-0.009-0.019-0.018-0.038-0.029-0.056-0.008-0.014-0.016-0.027-0.024-0.040-0.011-0.018-0.023-0.035-0.036-0.051-0.009-0.012-0.019-0.025-0.029-0.037-0.014-0.016-0.028-0.031-0.042-0.046-0.011-0.011-0.022-0.023-0.034-0.033-0.016-0.014-0.032-0.028-0.048-0.040-0.013-0.010-0.025-0.020-0.038-0.029-0.005-0.003-0.009-0.007-0.014-0.010l-9.026-6.017c-0.285-0.19-0.656-0.19-0.941 0l-9.025 6.017c-0.005 0.003-0.009 0.007-0.014 0.010-0.013 0.009-0.026 0.019-0.038 0.029-0.017 0.013-0.033 0.027-0.048 0.040-0.012 0.010-0.023 0.022-0.034 0.033-0.015 0.015-0.029 0.030-0.042 0.046-0.010 0.012-0.020 0.024-0.029 0.037-0.012 0.017-0.024 0.034-0.036 0.051-0.009 0.013-0.017 0.026-0.024 0.040-0.010 0.018-0.020 0.037-0.029 0.056-0.006 0.013-0.013 0.027-0.019 0.042-0.008 0.020-0.015 0.041-0.022 0.062-0.004 0.013-0.009 0.027-0.013 0.041-0.006 0.023-0.010 0.047-0.015 0.071-0.002 0.012-0.005 0.024-0.007 0.037-0.005 0.036-0.008 0.073-0.008 0.111v6.017c0 0.037 0.003 0.074 0.008 0.111 0.002 0.012 0.005 0.024 0.007 0.036 0.004 0.024 0.009 0.048 0.015 0.071 0.004 0.014 0.009 0.027 0.013 0.041 0.007 0.021 0.014 0.042 0.022 0.062 0.006 0.014 0.012 0.028 0.019 0.041 0.009 0.019 0.018 0.038 0.029 0.057 0.008 0.013 0.016 0.026 0.024 0.039 0.011 0.018 0.023 0.035 0.036 0.051 0.009 0.013 0.019 0.025 0.029 0.037 0.013 0.016 0.027 0.031 0.042 0.046 0.011 0.011 0.022 0.023 0.034 0.033 0.015 0.014 0.031 0.028 0.048 0.041 0.012 0.010 0.025 0.020 0.038 0.029 0.005 0.003 0.009 0.007 0.014 0.010l9.025 6.017c0.143 0.095 0.307 0.143 0.471 0.143s0.328-0.048 0.471-0.143l9.026-6.017c0.005-0.003 0.009-0.007 0.014-0.010 0.013-0.009 0.026-0.019 0.038-0.029 0.016-0.013 0.032-0.026 0.048-0.041 0.012-0.010 0.023-0.022 0.034-0.033 0.015-0.015 0.029-0.030 0.042-0.046 0.010-0.012 0.020-0.024 0.029-0.037 0.013-0.017 0.024-0.034 0.036-0.051 0.008-0.013 0.016-0.026 0.024-0.039 0.011-0.019 0.020-0.037 0.029-0.057 0.006-0.013 0.013-0.027 0.019-0.041 0.008-0.021 0.015-0.042 0.022-0.062 0.004-0.014 0.010-0.027 0.013-0.041 0.006-0.023 0.011-0.047 0.015-0.071 0.002-0.012 0.005-0.024 0.007-0.036 0.005-0.037 0.008-0.074 0.008-0.111v-6.017c0-0.037-0.003-0.074-0.008-0.111v0z"></path>
    </symbol>
    <symbol id="icon-facebook-letter-logo" viewBox="0 0 32 32">
      <title>facebook-letter-logo</title>
      <path class="path1" d="M11.761 6.197c0 0.806 0 4.406 0 4.406h-3.228v5.387h3.228v16.009h6.631v-16.009h4.449c0 0 0.417-2.583 0.619-5.408-0.579 0-5.043 0-5.043 0s0-3.134 0-3.684c0-0.551 0.723-1.291 1.437-1.291 0.713 0 2.218 0 3.613 0 0-0.734 0-3.268 0-5.609-1.861 0-3.979 0-4.912 0-6.958-0-6.794 5.392-6.794 6.197z"></path>
    </symbol>
    <symbol id="icon-github-logo" viewBox="0 0 32 32">
      <title>github-logo</title>
      <path class="path1" d="M23.363 3.733c0.416 0.945 0.686 2.514 0.283 3.663 1.644 1.404 2.21 4.817 1.416 7.607 2.344 0.179 5.136-0.086 6.938 0.633-1.685-0.217-3.985-0.641-6.158-0.493-0.412 0.028-1.021-0.016-0.992 0.564 2.515 0.197 5.015 0.412 7.080 1.057-2.048-0.335-4.535-0.844-7.080-0.915-1.051 2.075-3.167 3.094-6.088 3.309 0.314 0.683 0.915 0.943 1.062 2.042 0.219 1.642-0.343 4.047 0.212 5.141 0.266 0.524 0.699 0.538 0.992 0.987-0.715 0.847-2.489-0.095-2.691-0.987-0.346-1.527 0.527-3.894-0.424-4.93 0.067 1.666-0.394 4.005 0.071 5.493 0.183 0.585 0.712 0.811 0.566 1.339-3.325 0.337-1.935-4.304-2.479-7.044-0.502 0.036-0.281 0.751-0.283 1.057-0.014 2.675 0.548 6.345-2.336 5.987-0.084-0.563 0.387-0.753 0.566-1.267 0.526-1.505-0.098-3.748 0.143-5.565-1.1 0.83 0.116 3.726-0.566 5.211-0.393 0.855-1.659 1.227-2.619 0.845 0.125-0.636 0.782-0.534 1.061-1.127 0.39-0.826 0.003-2.017 0.142-3.239-2.037 0.407-3.617-0.059-4.39-1.338-0.346-0.574-0.432-1.252-0.85-1.76-0.416-0.509-1.081-0.578-1.274-1.267 2.523-0.607 2.619 2.596 4.885 2.675 0.695 0.025 1.056-0.2 1.699-0.351 0.18-0.808 0.565-1.41 1.133-1.832-2.819-0.386-5.147-1.264-6.23-3.379-2.563 0.126-4.908 0.468-7.080 0.985 1.972-0.716 4.403-0.973 7.010-1.057-0.154-0.923-1.5-0.669-2.336-0.634-1.554 0.068-3.509 0.261-4.744 0.493 1.79-0.638 4.301-0.559 6.726-0.564-0.742-2.325-0.485-6.019 1.133-7.395-0.458-1.155-0.316-3.045 0.283-3.944 1.806 0.081 2.901 0.869 4.036 1.62 1.407-0.4 2.886-0.599 4.814-0.493 0.811 0.045 1.654 0.409 2.265 0.352 0.599-0.056 1.259-0.729 1.841-0.985 0.758-0.335 1.399-0.462 2.266-0.494z"></path>
    </symbol>
    <symbol id="icon-linkedin-logo" viewBox="0 0 32 32">
      <title>linkedin-logo</title>
      <path class="path1" d="M32 19.458v11.831h-6.859v-11.038c0-2.773-0.992-4.665-3.475-4.665-1.895 0-3.023 1.275-3.519 2.509-0.181 0.441-0.227 1.055-0.227 1.672v11.522h-6.861c0 0 0.092-18.695 0-20.632h6.86v2.925c-0.014 0.022-0.032 0.045-0.045 0.067h0.045v-0.067c0.911-1.404 2.539-3.409 6.183-3.409 4.514-0 7.898 2.949 7.898 9.286zM3.882 0.711c-2.347 0-3.882 1.54-3.882 3.564 0 1.98 1.491 3.567 3.791 3.567h0.046c2.393 0 3.881-1.586 3.881-3.567-0.045-2.025-1.488-3.564-3.835-3.564zM0.407 31.289h6.858v-20.632h-6.858v20.632z"></path>
    </symbol>
    <symbol id="icon-twitter-logo" viewBox="0 0 32 32">
      <title>twitter-logo</title>
      <path class="path1" d="M28.374 14.778c1.797-0.148 3.016-0.965 3.486-2.074-0.648 0.398-2.661 0.832-3.772 0.419-0.054-0.261-0.115-0.509-0.175-0.733-0.847-3.11-3.746-5.615-6.785-5.312 0.246-0.099 0.495-0.192 0.744-0.275 0.334-0.12 2.297-0.439 1.988-1.132-0.26-0.609-2.658 0.46-3.109 0.6 0.596-0.224 1.581-0.61 1.687-1.294-0.913 0.125-1.809 0.557-2.501 1.184 0.25-0.269 0.44-0.597 0.48-0.95-2.435 1.555-3.857 4.691-5.008 7.733-0.904-0.876-1.705-1.566-2.423-1.949-2.016-1.081-4.426-2.209-8.21-3.614-0.116 1.252 0.619 2.917 2.738 4.023-0.459-0.061-1.298 0.076-1.97 0.236 0.273 1.434 1.166 2.616 3.584 3.187-1.105 0.073-1.676 0.324-2.193 0.866 0.503 0.997 1.731 2.171 3.94 1.93-2.456 1.058-1.001 3.018 0.997 2.726-3.409 3.521-8.783 3.262-11.869 0.317 8.057 10.979 25.572 6.493 28.182-4.082 1.956 0.017 3.105-0.677 3.818-1.443-1.127 0.191-2.76-0.006-3.626-0.367z"></path>
    </symbol>
  </defs>
</svg>